<?xml version="1.0" encoding="utf-8"?>
<!-- Generator: Adobe Illustrator 22.1.0, SVG Export Plug-In . SVG Version: 6.00 Build 0)  -->
<svg version="1.1" id="Layer_1" xmlns="http://www.w3.org/2000/svg" xmlns:xlink="http://www.w3.org/1999/xlink" x="0px" y="0px"
	 viewBox="0 0 566.9 566.9" style="enable-background:new 0 0 566.9 566.9;" xml:space="preserve">
<style type="text/css">
	.st0{fill:#53B78F;}
	.st1{fill:#8BAF1A;}
	.st2{opacity:0.45;}
	.st3{fill:#FFFFFF;}
	.st4{opacity:0.7;fill:#FFFFFF;}
	.st5{fill:#2EA8D3;}
	.st6{fill:#EDDA3A;}
	.st7{fill:#FFFFFF;stroke:#000000;stroke-width:0.25;stroke-miterlimit:10;}
	.st8{fill:#C2D347;}
	.st9{fill:#83B22C;}
	.st10{fill:#F2DB53;}
	.st11{fill:none;stroke:#8BAF1A;stroke-miterlimit:10;}
	.st12{fill:none;stroke:#83B22C;stroke-miterlimit:10;}
	.st13{fill:none;stroke:#3BA6CA;stroke-miterlimit:10;}
	.st14{fill:none;stroke:#F2DB53;stroke-miterlimit:10;}
	.st15{fill:none;stroke:#929292;stroke-width:0.5;stroke-miterlimit:10;}
	.st16{fill:#929292;}
	.st17{opacity:0.6;}
	.st18{fill:none;stroke:#000000;stroke-width:0.15;stroke-miterlimit:10;}
	.st19{fill:#2EA8D3;stroke:#3BA6CA;stroke-miterlimit:10;}
	.st20{clip-path:url(#SVGID_12_);fill:#2EA8D3;}
	.st21{opacity:0.42;clip-path:url(#SVGID_12_);fill:#FFFFFF;}
	.st22{clip-path:url(#SVGID_14_);fill:#8BAF1A;}
	.st23{opacity:0.42;clip-path:url(#SVGID_14_);fill:#FFFFFF;}
	.st24{clip-path:url(#SVGID_16_);fill:#EDDA3A;}
	.st25{opacity:0.42;clip-path:url(#SVGID_16_);fill:#FFFFFF;}
	.st26{clip-path:url(#SVGID_18_);fill:#FFFFFF;}
	.st27{clip-path:url(#SVGID_18_);fill:#EDDA3A;}
	.st28{clip-path:url(#SVGID_18_);fill:#2EA8D3;}
	.st29{clip-path:url(#SVGID_18_);fill:#8BAF1A;}
	.st30{opacity:0.7;fill:#C2D348;}
	.st31{fill:none;stroke:#000000;stroke-miterlimit:10;}
	.st32{fill:none;stroke:#000000;stroke-width:0.15;stroke-miterlimit:10;stroke-dasharray:3;}
	.st33{fill:none;stroke:#EDDA3A;stroke-miterlimit:10;}
	.st34{fill:#BCBCBB;}
	.st35{fill:#777777;}
	.st36{fill:#6C6C6C;}
	.st37{fill:#CAC9C9;}
	.st38{opacity:0.6;fill:#FFFFFF;}
	.st39{fill:none;stroke:#3BA6CA;stroke-width:0.5;stroke-miterlimit:10;}
	.st40{fill:none;stroke:#000000;stroke-width:0.25;stroke-miterlimit:10;}
	.st41{fill:none;stroke:#2EA8D3;stroke-width:0.5;stroke-miterlimit:10;}
	.st42{opacity:0.2;clip-path:url(#SVGID_62_);fill:#CECECC;}
	.st43{opacity:0.2;clip-path:url(#SVGID_66_);fill:#CECECC;}
	.st44{opacity:0.16;clip-path:url(#SVGID_70_);fill:#FFFFFF;}
	.st45{opacity:0.16;fill:#FFFFFF;}
	.st46{opacity:0.69;}
	.st47{opacity:0.15;clip-path:url(#SVGID_76_);fill:#B2B2B2;}
	.st48{opacity:0.16;clip-path:url(#SVGID_82_);fill:#FFFFFF;}
</style>
<g>
	<defs>
		<rect id="SVGID_11_" x="-1" y="-2" width="569" height="571"/>
	</defs>
	<clipPath id="SVGID_2_">
		<use xlink:href="#SVGID_11_"  style="overflow:visible;"/>
	</clipPath>
	<rect x="-1" y="-2" style="clip-path:url(#SVGID_2_);fill:#2EA8D3;" width="569" height="571"/>
	<path style="opacity:0.42;clip-path:url(#SVGID_2_);fill:#FFFFFF;" d="M39,303.9v-3.7c0.9-0.5,1.5-1.5,1.8-2.6h30.8l-2.6-2.9H45.7
		l-4.8,2.1c0-0.1,0-0.1,0-0.2h0v-3.2c0,0,0-0.9-2-1.2v-1.4l-1.6-0.6l-1.6,0.6v1.4c-2,0.3-2,1.2-2,1.2v3.2h0c0,0.1,0,0.1,0,0.2
		l-4.8-2.1H5.6L3,297.6h30.8c0.3,1.1,1,2.1,1.8,2.6v1.7c-2.9-0.6-9.6-1.6-18.2-1.2c-6.8,0.3-15.4-1.2-21.5-2.5l-0.3-5.2
		c0.4-0.1,0.7-0.3,0.7-0.6c0-1.6-6.3-11.1-14.2-11.1c-7,0-14.4,9.5-14.4,11.1c0,0.3,0.3,0.5,0.9,0.7l-0.3,5.2
		c-6.1,1.3-14.8,2.8-21.6,2.5c-8.6-0.4-15.3,0.7-18.2,1.2v-1.7c0.9-0.5,1.5-1.5,1.8-2.6H-39l-2.6-2.9h-23.4l-4.8,2.1
		c0-0.1,0-0.1,0-0.2h0v-0.2c0,0,0,0,0,0s0,0,0,0v-3c0,0,0-0.9-2-1.2v-1.4l-1.6-0.6l-1.6,0.6v1.4c-2,0.3-2,1.2-2,1.2v3.2h0
		c0,0.1,0,0.1,0,0.2l-4.8-2.1H-105l-2.6,2.9h30.8c0.3,1.1,1,2.1,1.8,2.6v3.7c-2.6,0.5-4.7,2.4-5.7,4.8h14.7c0-0.1-0.1-0.1-0.1-0.2
		h31c0,0.1,0,0.1,0,0.2h34.3c0-0.1,0-0.1,0-0.2h30.8c0,0.1-0.1,0.1-0.1,0.2h14.7C43.7,306.3,41.6,304.4,39,303.9z"/>
	<path style="opacity:0.42;clip-path:url(#SVGID_2_);fill:#FFFFFF;" d="M178.8,469v-3.7c0.9-0.5,1.5-1.5,1.8-2.6h30.8l-2.6-2.9
		h-23.4l-4.8,2.1c0-0.1,0-0.1,0-0.2h0v-3.2c0,0,0-0.9-2-1.2v-1.4l-1.6-0.6l-1.6,0.6v1.4c-2,0.3-2,1.2-2,1.2v3.2h0c0,0.1,0,0.1,0,0.2
		l-4.8-2.1h-23.4l-2.6,2.9h30.8c0.3,1.1,1,2.1,1.8,2.6v1.7c-2.9-0.6-9.6-1.6-18.2-1.2c-6.8,0.3-15.4-1.2-21.5-2.5l-0.3-5.2
		c0.4-0.1,0.7-0.3,0.7-0.6c0-1.6-6.3-11.1-14.2-11.1c-7,0-14.4,9.5-14.4,11.1c0,0.3,0.3,0.5,0.9,0.7l-0.3,5.2
		c-6.1,1.3-14.8,2.8-21.6,2.5c-8.6-0.4-15.3,0.7-18.2,1.2v-1.7c0.9-0.5,1.5-1.5,1.8-2.6h30.8l-2.6-2.9H74.9l-4.8,2.1
		c0-0.1,0-0.1,0-0.2h0v-0.2c0,0,0,0,0,0c0,0,0,0,0,0v-3c0,0,0-0.9-2-1.2v-1.4l-1.6-0.6l-1.6,0.6v1.4c-2,0.3-2,1.2-2,1.2v3.2h0
		c0,0.1,0,0.1,0,0.2l-4.8-2.1H34.8l-2.6,2.9h30.8c0.3,1.1,1,2.1,1.8,2.6v3.7c-2.6,0.5-4.7,2.4-5.7,4.8h14.7c0-0.1-0.1-0.1-0.1-0.2
		h31c0,0.1,0,0.1,0,0.2H139c0-0.1,0-0.1,0-0.2h30.8c0,0.1-0.1,0.1-0.1,0.2h14.7C183.5,471.4,181.4,469.5,178.8,469z"/>
	<path style="opacity:0.42;clip-path:url(#SVGID_2_);fill:#FFFFFF;" d="M98.7,57.5v-3.7c0.9-0.5,1.5-1.5,1.8-2.6h30.8l-2.6-2.9
		h-23.4l-4.8,2.1c0-0.1,0-0.1,0-0.2h0V47c0,0,0-0.9-2-1.2v-1.4l-1.6-0.6l-1.6,0.6v1.4c-2,0.3-2,1.2-2,1.2v3.2h0c0,0.1,0,0.1,0,0.2
		l-4.8-2.1H65.3l-2.6,2.9h30.8c0.3,1.1,1,2.1,1.8,2.6v1.7c-2.9-0.6-9.6-1.6-18.2-1.2c-6.8,0.3-15.4-1.2-21.5-2.5l-0.3-5.2
		c0.4-0.1,0.7-0.3,0.7-0.6c0-1.6-6.3-11.1-14.2-11.1c-7,0-14.4,9.5-14.4,11.1c0,0.3,0.3,0.5,0.9,0.7L28,51.8
		c-6.1,1.3-14.8,2.8-21.6,2.5C-2.3,53.9-9,55-11.9,55.5v-1.7c0.9-0.5,1.5-1.5,1.8-2.6h30.8l-2.6-2.9H-5.2l-4.8,2.1
		c0-0.1,0-0.1,0-0.2h0V50c0,0,0,0,0,0c0,0,0,0,0,0v-3c0,0,0-0.9-2-1.2v-1.4l-1.6-0.6l-1.6,0.6v1.4c-2,0.3-2,1.2-2,1.2v3.2h0
		c0,0.1,0,0.1,0,0.2l-4.8-2.1h-23.4l-2.6,2.9H-17c0.3,1.1,1,2.1,1.8,2.6v3.7c-2.6,0.5-4.7,2.4-5.7,4.8h14.7c0-0.1-0.1-0.1-0.1-0.2
		h31c0,0.1,0,0.1,0,0.2H59c0-0.1,0-0.1,0-0.2h30.8c0,0.1-0.1,0.1-0.1,0.2h14.7C103.4,59.9,101.3,58.1,98.7,57.5z"/>
	<path style="opacity:0.42;clip-path:url(#SVGID_2_);fill:#FFFFFF;" d="M238.5,219.5v-3.7c0.9-0.5,1.5-1.5,1.8-2.6h30.8l-2.6-2.9
		h-23.4l-4.8,2.1c0-0.1,0-0.1,0-0.2h0v-3.2c0,0,0-0.9-2-1.2v-1.4l-1.6-0.6l-1.6,0.6v1.4c-2,0.3-2,1.2-2,1.2v3.2h0c0,0.1,0,0.1,0,0.2
		l-4.8-2.1h-23.4l-2.6,2.9h30.8c0.3,1.1,1,2.1,1.8,2.6v1.7c-2.9-0.6-9.6-1.6-18.2-1.2c-6.8,0.3-15.4-1.2-21.5-2.5l-0.3-5.2
		c0.4-0.1,0.7-0.3,0.7-0.6c0-1.6-6.3-11.1-14.2-11.1c-7,0-14.4,9.5-14.4,11.1c0,0.3,0.3,0.5,0.9,0.7l-0.3,5.2
		c-6.1,1.3-14.8,2.8-21.6,2.5c-8.6-0.4-15.3,0.7-18.2,1.2v-1.7c0.9-0.5,1.5-1.5,1.8-2.6h30.8l-2.6-2.9h-23.4l-4.8,2.1
		c0-0.1,0-0.1,0-0.2h0v-0.2c0,0,0,0,0,0c0,0,0,0,0,0v-3c0,0,0-0.9-2-1.2v-1.4l-1.6-0.6l-1.6,0.6v1.4c-2,0.3-2,1.2-2,1.2v3.2h0
		c0,0.1,0,0.1,0,0.2l-4.8-2.1H94.5l-2.6,2.9h30.8c0.3,1.1,1,2.1,1.8,2.6v3.7c-2.6,0.5-4.7,2.4-5.7,4.8h14.7c0-0.1-0.1-0.1-0.1-0.2
		h31c0,0.1,0,0.1,0,0.2h34.3c0-0.1,0-0.1,0-0.2h30.8c0,0.1-0.1,0.1-0.1,0.2h14.7C243.2,221.8,241.1,220,238.5,219.5z"/>
	<path style="opacity:0.42;clip-path:url(#SVGID_2_);fill:#FFFFFF;" d="M378.3,384.6v-3.7c0.9-0.5,1.5-1.5,1.8-2.6h30.8l-2.6-2.9
		H385l-4.8,2.1c0-0.1,0-0.1,0-0.2h0V374c0,0,0-0.9-2-1.2v-1.4l-1.6-0.6l-1.6,0.6v1.4c-2,0.3-2,1.2-2,1.2v3.2h0c0,0.1,0,0.1,0,0.2
		l-4.8-2.1h-23.4l-2.6,2.9h30.8c0.3,1.1,1,2.1,1.8,2.6v1.7c-2.9-0.6-9.6-1.6-18.2-1.2c-6.8,0.3-15.4-1.2-21.5-2.5l-0.3-5.2
		c0.4-0.1,0.7-0.3,0.7-0.6c0-1.6-6.3-11.1-14.2-11.1c-7,0-14.4,9.5-14.4,11.1c0,0.3,0.3,0.5,0.9,0.7l-0.3,5.2
		c-6.1,1.3-14.8,2.8-21.6,2.5c-8.6-0.4-15.3,0.7-18.2,1.2v-1.7c0.9-0.5,1.5-1.5,1.8-2.6h30.8l-2.6-2.9h-23.4l-4.8,2.1
		c0-0.1,0-0.1,0-0.2h0V377c0,0,0,0,0,0s0,0,0,0v-3c0,0,0-0.9-2-1.2v-1.4l-1.6-0.6l-1.6,0.6v1.4c-2,0.3-2,1.2-2,1.2v3.2h0
		c0,0.1,0,0.1,0,0.2l-4.8-2.1h-23.4l-2.6,2.9h30.8c0.3,1.1,1,2.1,1.8,2.6v3.7c-2.6,0.5-4.7,2.4-5.7,4.8h14.7c0-0.1-0.1-0.1-0.1-0.2
		h31c0,0.1,0,0.1,0,0.2h34.3c0-0.1,0-0.1,0-0.2h30.8c0,0.1-0.1,0.1-0.1,0.2H384C383,386.9,380.9,385.1,378.3,384.6z"/>
	<path style="opacity:0.42;clip-path:url(#SVGID_2_);fill:#FFFFFF;" d="M518,534.6v-3.7c0.9-0.5,1.5-1.5,1.8-2.6h30.8l-2.6-2.9
		h-23.4l-4.8,2.1c0-0.1,0-0.1,0-0.2h0V524c0,0,0-0.9-2-1.2v-1.4l-1.6-0.6l-1.6,0.6v1.4c-2,0.3-2,1.2-2,1.2v3.2h0c0,0.1,0,0.1,0,0.2
		l-4.8-2.1h-23.4l-2.6,2.9h30.8c0.3,1.1,1,2.1,1.8,2.6v1.7c-2.9-0.6-9.6-1.6-18.2-1.2c-6.8,0.3-15.4-1.2-21.5-2.5l-0.3-5.2
		c0.4-0.1,0.7-0.3,0.7-0.6c0-1.6-6.3-11.1-14.2-11.1c-7,0-14.4,9.5-14.4,11.1c0,0.3,0.3,0.5,0.9,0.7l-0.3,5.2
		c-6.1,1.3-14.8,2.8-21.6,2.5c-8.6-0.4-15.3,0.7-18.2,1.2v-1.7c0.9-0.5,1.5-1.5,1.8-2.6h30.8l-2.6-2.9h-23.4l-4.8,2.1
		c0-0.1,0-0.1,0-0.2h0V527c0,0,0,0,0,0s0,0,0,0v-3c0,0,0-0.9-2-1.2v-1.4l-1.6-0.6l-1.6,0.6v1.4c-2,0.3-2,1.2-2,1.2v3.2h0
		c0,0.1,0,0.1,0,0.2l-4.8-2.1h-23.4l-2.6,2.9h30.8c0.3,1.1,1,2.1,1.8,2.6v3.7c-2.6,0.5-4.7,2.4-5.7,4.8h14.7c0-0.1-0.1-0.1-0.1-0.2
		h31c0,0.1,0,0.1,0,0.2h34.3c0-0.1,0-0.1,0-0.2h30.8c0,0.1-0.1,0.1-0.1,0.2h14.7C522.8,536.9,520.6,535.1,518,534.6z"/>
	<path style="opacity:0.42;clip-path:url(#SVGID_2_);fill:#FFFFFF;" d="M623,41.8v-3.7c0.9-0.5,1.5-1.5,1.8-2.6h30.8l-2.6-2.9h-23.4
		l-4.8,2.1c0-0.1,0-0.1,0-0.2h0v-3.2c0,0,0-0.9-2-1.2v-1.4l-1.6-0.6l-1.6,0.6V30c-2,0.3-2,1.2-2,1.2v3.2h0c0,0.1,0,0.1,0,0.2
		l-4.8-2.1h-23.4l-2.6,2.9h30.8c0.3,1.1,1,2.1,1.8,2.6v1.7c-2.9-0.6-9.6-1.6-18.2-1.2c-6.8,0.3-15.4-1.2-21.5-2.5l-0.3-5.2
		c0.4-0.1,0.7-0.3,0.7-0.6c0-1.6-6.3-11.1-14.2-11.1c-7,0-14.4,9.5-14.4,11.1c0,0.3,0.3,0.5,0.9,0.7l-0.3,5.2
		c-6.1,1.3-14.8,2.8-21.6,2.5c-8.6-0.4-15.3,0.7-18.2,1.2v-1.7c0.9-0.5,1.5-1.5,1.8-2.6h30.8l-2.6-2.9h-23.4l-4.8,2.1
		c0-0.1,0-0.1,0-0.2h0v-0.2c0,0,0,0,0,0c0,0,0,0,0,0v-3c0,0,0-0.9-2-1.2v-1.4l-1.6-0.6l-1.6,0.6V30c-2,0.3-2,1.2-2,1.2v3.2h0
		c0,0.1,0,0.1,0,0.2l-4.8-2.1h-23.4l-2.6,2.9h30.8c0.3,1.1,1,2.1,1.8,2.6v3.7c-2.6,0.5-4.7,2.4-5.7,4.8h14.7c0-0.1-0.1-0.1-0.1-0.2
		h31c0,0.1,0,0.1,0,0.2h34.3c0-0.1,0-0.1,0-0.2h30.8c0,0.1-0.1,0.1-0.1,0.2h14.7C627.8,44.1,625.6,42.3,623,41.8z"/>
	<path style="opacity:0.42;clip-path:url(#SVGID_2_);fill:#FFFFFF;" d="M425.2,123.8v-3.7c0.9-0.5,1.5-1.5,1.8-2.6h30.8l-2.6-2.9
		H432l-4.8,2.1c0-0.1,0-0.1,0-0.2h0v-3.2c0,0,0-0.9-2-1.2v-1.4l-1.6-0.6l-1.6,0.6v1.4c-2,0.3-2,1.2-2,1.2v3.2h0c0,0.1,0,0.1,0,0.2
		l-4.8-2.1h-23.4l-2.6,2.9h30.8c0.3,1.1,1,2.1,1.8,2.6v1.7c-2.9-0.6-9.6-1.6-18.2-1.2c-6.8,0.3-15.4-1.2-21.5-2.5l-0.3-5.2
		c0.4-0.1,0.7-0.3,0.7-0.6c0-1.6-6.3-11.1-14.2-11.1c-7,0-14.4,9.5-14.4,11.1c0,0.3,0.3,0.5,0.9,0.7l-0.3,5.2
		c-6.1,1.3-14.8,2.8-21.6,2.5c-8.6-0.4-15.3,0.7-18.2,1.2v-1.7c0.9-0.5,1.5-1.5,1.8-2.6h30.8l-2.6-2.9h-23.4l-4.8,2.1
		c0-0.1,0-0.1,0-0.2h0v-0.2c0,0,0,0,0,0c0,0,0,0,0,0v-3c0,0,0-0.9-2-1.2v-1.4L313,110l-1.6,0.6v1.4c-2,0.3-2,1.2-2,1.2v3.2h0
		c0,0.1,0,0.1,0,0.2l-4.8-2.1h-23.4l-2.6,2.9h30.8c0.3,1.1,1,2.1,1.8,2.6v3.7c-2.6,0.5-4.7,2.4-5.7,4.8h14.7c0-0.1-0.1-0.1-0.1-0.2
		h31c0,0.1,0,0.1,0,0.2h34.3c0-0.1,0-0.1,0-0.2h30.8c0,0.1-0.1,0.1-0.1,0.2H431C430,126.2,427.9,124.4,425.2,123.8z"/>
	<path style="opacity:0.42;clip-path:url(#SVGID_2_);fill:#FFFFFF;" d="M565,288.9v-3.7c0.9-0.5,1.5-1.5,1.8-2.6h30.8l-2.6-2.9
		h-23.4l-4.8,2.1c0-0.1,0-0.1,0-0.2h0v-3.2c0,0,0-0.9-2-1.2v-1.4l-1.6-0.6l-1.6,0.6v1.4c-2,0.3-2,1.2-2,1.2v3.2h0c0,0.1,0,0.1,0,0.2
		l-4.8-2.1h-23.4l-2.6,2.9h30.8c0.3,1.1,1,2.1,1.8,2.6v1.7c-2.9-0.6-9.6-1.6-18.2-1.2c-6.8,0.3-15.4-1.2-21.5-2.5l-0.3-5.2
		c0.4-0.1,0.7-0.3,0.7-0.6c0-1.6-6.3-11.1-14.2-11.1c-7,0-14.4,9.5-14.4,11.1c0,0.3,0.3,0.5,0.9,0.7l-0.3,5.2
		c-6.1,1.3-14.8,2.8-21.6,2.5c-8.6-0.4-15.3,0.7-18.2,1.2v-1.7c0.9-0.5,1.5-1.5,1.8-2.6h30.8l-2.6-2.9h-23.4l-4.8,2.1
		c0-0.1,0-0.1,0-0.2h0v-0.2c0,0,0,0,0,0s0,0,0,0v-3c0,0,0-0.9-2-1.2v-1.4l-1.6-0.6l-1.6,0.6v1.4c-2,0.3-2,1.2-2,1.2v3.2h0
		c0,0.1,0,0.1,0,0.2l-4.8-2.1h-23.4l-2.6,2.9h30.8c0.3,1.1,1,2.1,1.8,2.6v3.7c-2.6,0.5-4.7,2.4-5.7,4.8h14.7c0-0.1-0.1-0.1-0.1-0.2
		h31c0,0.1,0,0.1,0,0.2h34.3c0-0.1,0-0.1,0-0.2h30.8c0,0.1-0.1,0.1-0.1,0.2h14.7C569.8,291.3,567.6,289.5,565,288.9z"/>
</g>
</svg>
